<svg width="50" height="50" xmlns="http://www.w3.org/2000/svg">

  <path stroke="null" id="svg_1" fill="#FBCD00" d="m20.51353,25.50754c-4.36183,0 -7.90157,-3.5624 -7.90157,-7.9572c0,-4.39892 3.53974,-7.95926 7.90157,-7.95926s7.90157,3.5624 7.90157,7.95926c0,4.39274 -3.53974,7.9572 -7.90157,7.9572m0,-25.50754c-9.65907,0 -17.48853,7.88509 -17.48853,17.61421c0,9.18931 7.92011,21.04269 13.20911,26.81382c1.97591,2.1531 4.27735,5.05618 4.27735,5.05618s2.47246,-2.91956 4.59259,-5.13653c5.28488,-5.53007 12.89594,-16.63347 12.89594,-26.73347c0,-9.72913 -7.82945,-17.61421 -17.48647,-17.61421"/>

</svg>