<svg width="28" height="29" viewBox="0 0 28 29" fill="none" xmlns="http://www.w3.org/2000/svg">
<g clip-path="url(#clip0)">
<path d="M23.7765 0.571289H4.08064C1.83076 0.571289 0 2.40205 0 4.65193V24.3478C0 26.5977 1.83076 28.4284 4.08064 28.4284H23.7765C26.0264 28.4284 27.8571 26.5977 27.8571 24.3478V4.65193C27.8571 2.40205 26.0264 0.571289 23.7765 0.571289ZM13.983 21.7906C9.93274 21.7906 6.63784 18.4957 6.63784 14.4455C6.63784 10.3952 9.93274 7.10031 13.983 7.10031C18.0332 7.10031 21.3281 10.3952 21.3281 14.4455C21.3281 18.4957 18.0332 21.7906 13.983 21.7906ZM22.1443 8.73256C20.7942 8.73256 19.6959 7.63419 19.6959 6.28418C19.6959 4.93417 20.7942 3.8358 22.1443 3.8358C23.4943 3.8358 24.5926 4.93417 24.5926 6.28418C24.5926 7.63419 23.4943 8.73256 22.1443 8.73256Z" fill="#25252B"/>
<path d="M22.1443 5.46802C21.6939 5.46802 21.3281 5.83379 21.3281 6.28414C21.3281 6.7345 21.6939 7.10027 22.1443 7.10027C22.5946 7.10027 22.9604 6.7345 22.9604 6.28414C22.9604 5.83379 22.5946 5.46802 22.1443 5.46802Z" fill="#25252B"/>
<path d="M13.9834 8.73267C10.8337 8.73267 8.27051 11.2958 8.27051 14.4456C8.27051 17.5953 10.8337 20.1584 13.9834 20.1584C17.1331 20.1584 19.6963 17.5953 19.6963 14.4456C19.6963 11.2958 17.1331 8.73267 13.9834 8.73267Z" fill="#25252B"/>
</g>
<defs>
<clipPath id="clip0">
<rect y="0.571289" width="27.8571" height="27.8571" fill="white"/>
</clipPath>
</defs>
</svg>
