<svg width="105" height="47" viewBox="0 0 105 47" fill="none" xmlns="http://www.w3.org/2000/svg">
<path d="M104.207 30.3784C102.3 35.3622 97.6714 37.6942 93.7667 36.1983C89.862 34.7024 88.1538 29.9462 90.0614 24.9625C91.969 19.9787 96.6485 17.5469 100.546 19.0428C104.443 20.5387 106.12 25.392 104.207 30.3784Z" fill="#FDD100"/>
<path d="M15.438 46.5213H14.6402C3.32503 46.5213 -0.681946 44.4552 0.0928548 40.7935C0.806285 37.4232 2.99005 36.3927 9.84818 36.1037C9.91978 36.1037 9.96836 36.004 9.87119 35.9912C5.46531 35.398 1.94419 34.1066 2.77781 30.2173C3.61398 26.2717 7.28853 24.5201 14.208 24.2107C14.3078 24.2107 14.3308 24.1058 14.2387 24.093C9.12452 23.3259 5.97418 20.5131 7.14533 14.9975C8.47246 8.75558 13.3821 5.46971 22.8612 5.46971H22.9124C24.9913 5.46971 25.7405 5.06313 26.275 2.82567L26.8503 0.0307617H40.1677C39.2932 3.97636 38.907 6.84287 30.1771 6.45419C30.0544 6.45419 30.0492 6.55392 30.1464 6.57182C36.0277 7.66881 38.2959 10.9189 37.025 16.8948C35.68 23.2287 31.361 25.6324 19.9283 25.6375C16.6168 25.6375 15.8369 25.4534 15.709 25.9955C15.5812 26.6143 16.5452 26.8291 22.0327 26.9033C30.5504 27.0209 35.0995 29.6496 33.5397 36.7021C32.0412 43.4273 28.2107 46.5213 15.438 46.5213ZM17.5681 38.1878C20.3809 38.1878 21.0994 37.6763 21.2579 36.9322C21.3705 36.4029 20.9869 35.5437 18.1562 35.5437C15.0084 35.5437 14.6095 36.1088 14.4816 36.789C14.4126 37.1752 14.6632 38.1417 17.6039 38.2006L17.5681 38.1878ZM23.7818 16.5266C23.7818 16.5266 23.9276 15.8387 24.1321 14.867C24.3367 13.8953 23.4187 13.3788 22.8536 13.3686C22.2885 13.3584 21.217 13.4888 20.9332 14.821C20.7874 15.5063 20.5778 16.4857 20.5778 16.4857C20.253 17.823 21.3142 17.9867 21.8563 18.0199C22.3984 18.0532 23.4494 17.864 23.7818 16.5266Z" fill="white"/>
<path d="M76.3172 0H91.2353L83.5871 35.7226H68.6689L76.3172 0Z" fill="white"/>
<path d="M63.3991 6.2981C57.4104 6.2981 54.6461 11.0032 54.1782 12.2101C54.1501 12.2791 54.1015 12.274 54.1091 12.2101L54.6206 6.54358H41.3237L33.123 45.3041H47.4428L50.7363 30.1302C50.7363 30.1072 50.767 30.1072 50.767 30.1302C51.0662 34.4159 53.365 36.2161 57.6993 36.4105C64.0307 36.6457 67.0557 32.6848 69.3034 22.6482L69.5591 21.5589C71.8707 11.1719 69.7458 6.30065 63.3991 6.2981ZM55.5999 19.595L54.999 22.4078C54.6589 24.0213 53.6489 24.6606 52.8255 24.5276C52.268 24.4381 51.2605 23.9574 51.5827 22.4001L52.1785 19.6129C52.5058 17.7283 53.5901 17.1683 54.3674 17.2322C54.9197 17.2706 56.0014 17.7437 55.5999 19.5924V19.595Z" fill="white"/>
</svg>
